<svg width="148" height="135" viewBox="0 0 148 135" fill="none" xmlns="http://www.w3.org/2000/svg">
<path d="M74 135L9.91412 33.75L138.086 33.75L74 135Z" fill="white"/>
<path d="M74 33L106.043 82.5H41.9571L74 33Z" fill="url(#paint0_linear_59_4)" fill-opacity="0.8"/>
<path d="M69.017 67.428H72.02V67.857C71.6473 67.857 71.3787 67.9133 71.214 68.026C71.058 68.1387 70.98 68.3293 70.98 68.598V72.017H75.608V68.598C75.608 68.312 75.5473 68.1213 75.426 68.026C75.2613 67.9133 74.9667 67.857 74.542 67.857V67.428H77.532V67.857C77.0727 67.857 76.765 67.922 76.609 68.052C76.4963 68.1647 76.44 68.3467 76.44 68.598V75.397C76.44 75.6483 76.5007 75.8217 76.622 75.917C76.7867 76.0383 77.0813 76.099 77.506 76.099V76.515H74.581V76.099C74.997 76.099 75.2743 76.0383 75.413 75.917C75.543 75.813 75.608 75.6397 75.608 75.397V72.498H70.98V75.397C70.98 75.6397 71.058 75.813 71.214 75.917C71.3787 76.0383 71.6517 76.099 72.033 76.099V76.515H69.082V76.099C69.498 76.099 69.7883 76.0383 69.953 75.917C70.0743 75.8217 70.135 75.6483 70.135 75.397V68.598C70.135 68.312 70.0743 68.1213 69.953 68.026C69.7883 67.9133 69.4763 67.857 69.017 67.857V67.428ZM69.277 63.086C69.667 63.086 69.9487 63.0253 70.122 62.904C70.2433 62.8087 70.369 62.592 70.499 62.254L73.359 54.285H73.697L76.609 62.397C76.6697 62.631 76.765 62.7913 76.895 62.878C77.0857 63.0167 77.3933 63.086 77.818 63.086V63.515H74.607V63.086C75.257 63.086 75.621 63.021 75.699 62.891C75.7943 62.813 75.816 62.7047 75.764 62.566L73.346 55.832L71.032 62.371C70.9367 62.605 70.9367 62.7697 71.032 62.865C71.1273 63.0123 71.4827 63.086 72.098 63.086V63.515H69.277V63.086Z" fill="white"/>
<defs>
<linearGradient id="paint0_linear_59_4" x1="74" y1="33" x2="74" y2="99" gradientUnits="userSpaceOnUse">
<stop stop-color="#FF5353"/>
<stop offset="1" stop-color="#0B156D"/>
</linearGradient>
</defs>
</svg>
